<svg xmlns="http://www.w3.org/2000/svg" width="256" height="303.258" id="codeigniter">
  <path fill="#ee4323" d="M13.1 287.306c-5.2 0-6.717-3.03-6.717-7.57a40.37 40.37 0 0 1 .424-5.018c1.14-7.851 3.923-12.343 10.64-12.343 4.543 0 6.758 2.032 6.758 5.722v1.8h4.507c.05 0 .05-1.656.05-2.033 0-5.392-3.265-10.506-11.308-10.506-10.929 0-15.423 5.937-17.079 17.576A29.861 29.861 0 0 0 0 279.509c0 6.86 2.7 13.1 12.349 13.1 7.332 0 11.687-3.575 14.24-7.975l-4.306-2.9c-2.79 4.4-5.82 5.572-9.179 5.572Zm29.57-21.668c-8.754 0-12.536 4.492-13.813 13.432a23.325 23.325 0 0 0-.24 3.124c0 5.77 2.7 10.362 10.17 10.362 8.754 0 12.587-4.685 13.864-13.486a25.727 25.727 0 0 0 .237-3.215c0-5.865-2.788-10.217-10.218-10.217Zm3.643 13.435c-.947 6.483-2.979 8.47-6.814 8.47-3.073 0-4.586-1.278-4.586-5.11a23.67 23.67 0 0 1 .284-3.36c.947-6.433 2.839-8.42 6.718-8.42 3.123 0 4.682 1.277 4.682 5.156a21.912 21.912 0 0 1-.284 3.264ZM74.9 257.827l-1.465 8.685c-.094.755-.046.5.24 1.214A10.451 10.451 0 0 0 68.182 266c-7.854 0-12.252 3.555-13.67 13.49a19.413 19.413 0 0 0-.237 3.171c0 7.241 4.257 9.94 9.98 9.94 2.416 0 4.78.05 6.623-1.509l.471 2.943h4.543l5.3-36.206H74.9Zm-4.5 28.342a10.859 10.859 0 0 1-5.484 1.562c-3.454 0-4.4-1.8-4.4-4.683a28.43 28.43 0 0 1 .333-3.739c1.086-7.521 3.5-8.848 6.623-8.848a10.007 10.007 0 0 1 5.062 1.139L70.4 286.169ZM95 265.638c-8.66 0-12.725 4.113-14.1 13.432a26.191 26.191 0 0 0-.239 3.266c0 6.387 3.266 10.22 10.454 10.22 5.583 0 9.75-2.32 11.972-6.578l-4.779-1.94a7.106 7.106 0 0 1-6.48 3.5c-3.5 0-4.92-.942-4.92-4.065a4.617 4.617 0 0 1 .143-1.511h17.076c.24-2.414.52-4.12.52-5.535 0-4.728-1.8-10.79-9.648-10.79Zm3.263 11.5H87.861c1.043-2.414 2.79-6.15 6.387-6.15 2.79 0 4.164 1.631 4.164 4.422a7.276 7.276 0 0 1-.143 1.728Zm24.591-12.069.567-4.827h-13.337l-.565 4.827h3.5l-3.782 24.131h-3.5l-.564 4.828h13.34l.57-4.828h-3.5l3.783-24.137h3.5Zm27.11 7.241 1.705-4.827h-4.589l-3.309.683a13.1 13.1 0 0 0-6.717-2.066c-6.768 0-12.537 3.268-12.537 10.7a7.9 7.9 0 0 0 1.653 4.9 4.4 4.4 0 0 0-2.647 3.726 3.572 3.572 0 0 0 .852 2.238 9.046 9.046 0 0 0-4.586 7.842c0 6.39 6.669 7.753 11.778 7.753 6.433 0 14.1-1.47 14.1-9.655 0-2.79-1.75-4.97-6.812-5.916l-9.13-1.706c-1.04-.191-1.277-.522-1.277-.995a1.01 1.01 0 0 1 1.136-1.086l.616.094a18.692 18.692 0 0 0 4.115.427c6.578 0 12.443-2.84 12.443-10.22a6.7 6.7 0 0 0-.661-2.884 10.285 10.285 0 0 0 2.268.995h1.6Zm-13.007 19.583c1.8.333 2.41.994 2.41 2.177 0 3.833-4.116 4.306-7.1 4.306-4.542 0-6.244-1.086-6.244-3.5a5.809 5.809 0 0 1 2.035-4.637ZM135.02 279.5c-2.744 0-4.258-.992-4.258-3.36 0-3.5 2.035-5.535 5.583-5.535 2.839 0 4.212 1.183 4.212 3.5 0 3.5-1.989 5.395-5.537 5.395Zm31.757-13.862c-2.65 0-5.013 1.3-7.948 3.616l-.425-1.772H153.2l-3.642 26.55h6.292l2.745-20.134c1.846-1.135 4.115-2.783 6.055-2.783 2.364 0 3.218 1.141 3.218 3.316a25.08 25.08 0 0 1-.145 2.631l-2.315 16.97h6.292l2.315-17.108c.1-.8.19-2.119.19-2.874 0-4.5-2.129-8.412-7.427-8.412Zm19.38 21.743.048-.65 2.742-19.249h-10.456l-.659 4.827h4.586c-.379 0-.615.423-.661.8l-1.893 12.82a22.2 22.2 0 0 0-.14 2.418c0 3.311 1.8 5.682 5.484 5.682h3.218l.71-4.828H187.1c-.712 0-.946-1.257-.946-1.824Zm4.067-29.554h-6.15c-.379 0-.379-1.393-.425-.92l-.854 6.8c-.049.428-.049 1.36.33 1.36h6.153c.379 0 .379-1.654.425-2.084l.854-5.25c.048-.473.048.092-.333.092Zm12.831 29.715c-1.559 0-2.317-.663-2.317-2.08l.048-.1 1.987-13.056h7.19l2.175-4.827h-8.7l1.465-10.623-6.62 2.117-1.185 8.506h-3.831l-.661 4.827h4.446c-.425 2.414-.852.848-.9 1.323l-1.7 11.448a6.982 6.982 0 0 0-.094 1.371c0 4.495 3.311 6.177 7.289 6.177a13.553 13.553 0 0 0 8.989-3.02L207.7 286a7.594 7.594 0 0 1-4.64 1.544Zm23.087-21.9c-8.657 0-12.725 4.113-14.1 13.432a26.563 26.563 0 0 0-.237 3.266c0 6.387 3.264 10.22 10.454 10.22 5.583 0 9.75-2.32 11.97-6.578l-4.777-1.94a7.11 7.11 0 0 1-6.483 3.5c-3.5 0-4.92-.942-4.92-4.065a4.584 4.584 0 0 1 .146-1.511h17.077c.236-2.414.52-4.12.52-5.535 0-4.728-1.8-10.79-9.652-10.79Zm3.266 11.5H219c1.04-2.414 2.788-6.15 6.387-6.15 2.79 0 4.164 1.631 4.164 4.422a7.442 7.442 0 0 1-.143 1.728Zm23.8-11.5c-2.271 0-4.4 1.3-6.53 3.332l-.378-1.487h-5.2l-3.644 26.55h6.34l2.79-20.56a11.018 11.018 0 0 1 5.347-1.838 25.405 25.405 0 0 1 3.263-.04l.809-5.485a15.108 15.108 0 0 0-2.795-.471ZM92.54 238.81c-14.32-6.19-27.72-21.922-27.752-38.019-.039-17.55 11.083-32.45 24.916-42.242-1.663 6.283-2.57 12.03 1.55 17.65a16.686 16.686 0 0 0 16.872 6.386c14.8-3.24 15.479-19.51 6.705-28.989-8.675-9.387-17.067-19.99-13.765-33.6a35.008 35.008 0 0 1 11.151-17.785c-4.08 10.722 7.514 21.3 15.153 26.563 13.251 9.138 27.79 16.044 39.974 26.756 12.816 11.258 22.28 26.48 20.369 44.135-2.071 19.136-17.277 32.445-34.333 39.164 36.042-7.955 73.283-35.928 74.046-75.9.632-32.885-21.927-58.193-49.872-72.682l-1.46-.8a11.9 11.9 0 0 1 .989 4.861 17 17 0 0 0 .468-3.227 15.727 15.727 0 0 1-.512 3.9l.044-.673a16.383 16.383 0 0 1-2.069 4.931l.41-.441c-5.575 9.247-20.668 11.255-28.124 1.68-11.986-15.4.251-32.008 1.963-48.318 2.143-20.441-10.676-40.285-26.57-52.16 8.754 14.161-2.779 32.9-12.006 43.37C101.74 53.523 90.859 62 80.982 71.225c-10.61 9.908-20.81 20.345-29.531 31.975-17.442 23.276-28.12 52.55-20.273 81.588 7.842 29.018 32.978 47.49 61.363 54.022Z"></path>
</svg>
